<?xml version="1.0" encoding="UTF-8"?>
<svg width="152px" height="140px" viewBox="0 0 152 140" version="1.1" xmlns="http://www.w3.org/2000/svg" xmlns:xlink="http://www.w3.org/1999/xlink">
    <title>编组</title>
    <defs>
        <linearGradient x1="50%" y1="0.945148601%" x2="50%" y2="100%" id="linearGradient-1">
            <stop stop-color="#E8F2FF" offset="0%"></stop>
            <stop stop-color="#C6DEFF" offset="100%"></stop>
        </linearGradient>
        <circle id="path-2" cx="60" cy="60" r="60"></circle>
        <linearGradient x1="50%" y1="0%" x2="50%" y2="100%" id="linearGradient-4">
            <stop stop-color="#ADD0FF" offset="0%"></stop>
            <stop stop-color="#80B6FF" offset="100%"></stop>
        </linearGradient>
        <linearGradient x1="50%" y1="0%" x2="50%" y2="100%" id="linearGradient-5">
            <stop stop-color="#BEDAFF" offset="0%"></stop>
            <stop stop-color="#C2DCFF" offset="100%"></stop>
        </linearGradient>
        <linearGradient x1="50%" y1="0%" x2="50%" y2="100%" id="linearGradient-6">
            <stop stop-color="#BEDAFF" offset="0%"></stop>
            <stop stop-color="#C2DCFF" offset="100%"></stop>
        </linearGradient>
    </defs>
    <g id="页面-1" stroke="none" stroke-width="1" fill="none" fill-rule="evenodd">
        <g id="空" transform="translate(-720.000000, -329.000000)">
            <g id="编组" transform="translate(720.000000, 329.000000)">
                <g id="矩形" transform="translate(16.000000, 10.000000)">
                    <mask id="mask-3" fill="white">
                        <use xlink:href="#path-2"></use>
                    </mask>
                    <use id="蒙版" fill="url(#linearGradient-1)" xlink:href="#path-2"></use>
                    <rect fill="#C9E0FF" mask="url(#mask-3)" x="72" y="41" width="25" height="86" rx="4"></rect>
                    <rect fill="#B1D2FF" mask="url(#mask-3)" x="73" y="41" width="21" height="86" rx="4"></rect>
                    <path d="M86,41 C88.209139,41 90,42.790861 90,45 L90,123 C90,125.209139 88.209139,127 86,127 L26,127 C23.790861,127 22,125.209139 22,123 L22,45 C22,42.790861 23.790861,41 26,41 L86,41 Z M67.5,47 L44.5,47 C43.6715729,47 43,47.6715729 43,48.5 C43,49.3284271 43.6715729,50 44.5,50 L44.5,50 L67.5,50 C68.3284271,50 69,49.3284271 69,48.5 C69,47.6715729 68.3284271,47 67.5,47 L67.5,47 Z" id="形状结合" fill="url(#linearGradient-4)" mask="url(#mask-3)"></path>
                    <rect fill="url(#linearGradient-5)" mask="url(#mask-3)" x="32" y="60" width="48" height="6" rx="2"></rect>
                    <rect id="矩形备份" fill="url(#linearGradient-5)" mask="url(#mask-3)" x="32" y="78" width="48" height="6" rx="2"></rect>
                    <rect id="矩形备份-2" fill="url(#linearGradient-6)" mask="url(#mask-3)" x="32" y="96" width="36" height="6" rx="2"></rect>
                </g>
                <g id="编组-10" transform="translate(29.000000, 28.000000) scale(-1, 1) translate(-29.000000, -28.000000) translate(4.000000, 16.000000)" fill="#FFFFFF" fill-opacity="0.504124781" stroke="#84B8FF" stroke-width="0.803571429">
                    <path d="M40.5094758,0.401785714 C41.5030952,0.401785714 42.4026488,0.804529567 43.0537975,1.45567828 C43.7049462,2.10682699 44.1076901,3.00638056 44.1076901,4 C44.1076901,4.99361944 43.7049462,5.89317301 43.0537975,6.54432172 C42.4026488,7.19547043 41.5030952,7.59821429 40.5094758,7.59821429 L40.5094758,7.59821429 L32.3865878,7.59821429 C31.1432553,7.65532303 30.0622108,8.16186134 29.2889499,8.94300412 C28.503872,9.73608434 28.034575,10.8131924 28.034575,12 C28.034575,13.1757546 28.4955667,14.243831 29.2466302,15.0333819 C30.0035103,15.8290474 31.0550277,16.3417084 32.2261926,16.3968485 L32.2261926,16.3968485 L33.3628839,16.4017857 C34.3565033,16.4017857 35.2560569,16.8045296 35.9072056,17.4556783 C36.5583543,18.106827 36.9610982,19.0063806 36.9610982,20 C36.9610982,20.9936194 36.5583543,21.893173 35.9072056,22.5443217 C35.2560569,23.1954704 34.3565033,23.5982143 33.3628839,23.5982143 L33.3628839,23.5982143 L4,23.5982143 C3.00638056,23.5982143 2.10682699,23.1954704 1.45567828,22.5443217 C0.804529567,21.893173 0.401785714,20.9936194 0.401785714,20 C0.401785714,19.0063806 0.804529567,18.106827 1.45567828,17.4556783 C2.10682699,16.8045296 3.00638056,16.4017857 4.00015122,16.4017857 L4.00015122,16.4017857 L6.71461962,16.4007641 C7.85005098,16.074867 8.78943557,15.4332588 9.44252525,14.5941591 C10.0874313,13.7655739 10.4544792,12.7437679 10.4544792,11.6361607 C10.4544792,9.96120833 9.6144416,8.48239428 8.3325132,7.59831704 L8.3325132,7.59831704 L5.25378805,7.59821429 C4.26016861,7.59821429 3.36061504,7.19547043 2.70946633,6.54432172 C2.05831762,5.89317301 1.65557376,4.99361944 1.65557376,4 C1.65557376,3.00638056 2.05831762,2.10682699 2.70946633,1.45567828 C3.36061504,0.804529567 4.26016861,0.401785714 5.25378805,0.401785714 L5.25378805,0.401785714 Z M45.4878782,16.4017857 C46.4849844,16.4017857 47.3877491,16.8046296 48.0412015,17.4561078 C48.6942132,18.1071466 49.0982143,19.0065193 49.0982143,20 C49.0982143,20.9934807 48.6942132,21.8928534 48.0412015,22.5438922 C47.3877491,23.1953704 46.4849844,23.5982143 45.4878782,23.5982143 C44.4907721,23.5982143 43.5880074,23.1953704 42.934555,22.5438922 C42.2815433,21.8928534 41.8775422,20.9934807 41.8775422,20 C41.8775422,19.0065193 42.2815433,18.1071466 42.934555,17.4561078 C43.5880074,16.8046296 44.4907721,16.4017857 45.4878782,16.4017857 Z" id="形状结合"></path>
                </g>
            </g>
        </g>
    </g>
</svg>