<?xml version="1.0" encoding="UTF-8"?>
<svg width="15px" height="15px" viewBox="0 0 15 15" version="1.1" xmlns="http://www.w3.org/2000/svg" xmlns:xlink="http://www.w3.org/1999/xlink">
    <title>编组 7</title>
    <g id="页面-1" stroke="none" stroke-width="1" fill="none" fill-rule="evenodd">
        <g id="切图" transform="translate(-1284.000000, -25.000000)">
            <g id="编组-16" transform="translate(1284.000000, 25.000000)">
                <g id="编组-7" transform="translate(1.000000, 1.000000)">
                    <g id="编组-5" stroke="#1C1A1B" stroke-opacity="0.65">
                        <g id="编组-6">
                            <path d="M6.5,0 C2.91049107,0 0,2.91049107 0,6.5 C0,10.0895089 2.91049107,13 6.5,13 C10.0895089,13 13,10.0895089 13,6.5 C13,2.91049107 10.0895089,0 6.5,0 Z" id="形状"></path>
                        </g>
                    </g>
                    <path d="M7.27199093,3.9664154 C7.27199093,3.58378103 6.96180448,3.27359458 6.57917011,3.27359458 L6.57128958,3.27359458 C6.18865521,3.27359458 5.87846876,3.58378103 5.87846876,3.9664154 C5.87846876,4.34904977 6.18865521,4.65923621 6.57128958,4.65923621 L6.57917011,4.65923621 C6.96180448,4.65923621 7.27199093,4.34904977 7.27199093,3.9664154 Z M8.02199093,9.53372028 C8.02199093,9.34240309 7.86689771,9.18730987 7.67558052,9.18730987 L7.64699093,9.18730987 C7.43988415,9.18730987 7.27199093,9.01941665 7.27199093,8.81230987 L7.27199093,5.93361314 C7.27199093,5.49178534 6.91381873,5.13361314 6.47199093,5.13361314 L5.83865631,5.13361314 C5.64733912,5.13361314 5.4922459,5.28870636 5.4922459,5.48002355 C5.4922459,5.67134073 5.64733912,5.82643395 5.83865631,5.82643395 L5.8672459,5.82643395 C6.07435268,5.82643395 6.2422459,5.99432717 6.2422459,6.20143395 L6.2422459,8.81230987 C6.2422459,9.01941665 6.07435268,9.18730987 5.8672459,9.18730987 L5.83865631,9.18730987 C5.64733912,9.18730987 5.4922459,9.34240309 5.4922459,9.53372028 C5.4922459,9.72503746 5.64733912,9.88013068 5.83865631,9.88013068 L7.67558052,9.88013068 C7.86689771,9.88013068 8.02199093,9.72503746 8.02199093,9.53372028 Z" id="i" fill-opacity="0.65" fill="#1C1A1B" fill-rule="nonzero"></path>
                </g>
            </g>
        </g>
    </g>
</svg>